<?xml version="1.0" standalone="no"?>
<!DOCTYPE svg PUBLIC "-//W3C//DTD SVG 20010904//EN"
 "http://www.w3.org/TR/2001/REC-SVG-20010904/DTD/svg10.dtd">
<svg version="1.0" xmlns="http://www.w3.org/2000/svg"
 width="472.000000pt" height="529.000000pt" viewBox="0 0 472.000000 529.000000"
 preserveAspectRatio="xMidYMid meet">

<g transform="translate(0.000000,529.000000) scale(0.100000,-0.100000)"
fill="#fff" stroke="none">
<path d="M2455 5254 c-707 -46 -1270 -296 -1717 -763 -369 -385 -593 -865
-690 -1477 -19 -121 -22 -180 -22 -464 -1 -331 3 -389 45 -630 153 -882 641
-1501 1378 -1750 262 -88 498 -124 821 -124 242 -1 371 10 575 50 853 163
1646 689 1825 1210 64 186 13 392 -135 539 -202 203 -486 221 -755 50 -104
-66 -177 -141 -454 -466 -144 -168 -375 -439 -513 -601 -139 -163 -278 -318
-308 -345 -117 -105 -277 -160 -435 -150 -391 24 -732 398 -656 720 21 90 54
152 117 221 76 83 147 130 403 265 254 134 295 162 379 250 188 197 177 485
-27 686 -86 85 -171 132 -316 173 -116 34 -567 160 -615 172 -134 34 -550 154
-590 170 -129 52 -182 169 -127 280 46 94 99 136 407 322 432 262 1213 736
1574 956 194 118 381 226 414 240 68 27 167 33 208 12 116 -60 153 -205 110
-435 -11 -63 -30 -166 -41 -227 -11 -62 -31 -174 -45 -248 -36 -202 -48 -341
-41 -465 18 -333 146 -529 396 -606 66 -21 95 -24 250 -24 141 0 187 4 240 19
329 95 490 354 491 791 2 413 -150 774 -451 1075 -359 360 -868 556 -1486 574
-82 2 -176 2 -209 0z"/>
</g>
</svg>
